<svg xmlns="http://www.w3.org/2000/svg" fill="none" viewBox="0 0 24 25"><path fill="#000" d="M12 3c1.71 0 3.116.857 3.972 2H18a4 4 0 0 1 4 4v9a4 4 0 0 1-4 4H6a4 4 0 0 1-4-4V9a4 4 0 0 1 4-4h2.027C8.911 3.823 10.305 3 12 3m0 2c-1.098 0-1.989.571-2.521 1.413A1.26 1.26 0 0 1 8.415 7H6a2 2 0 0 0-2 2v9a2 2 0 0 0 2 2h12a2 2 0 0 0 2-2V9a2 2 0 0 0-2-2h-2.418a1.26 1.26 0 0 1-1.067-.596A2.96 2.96 0 0 0 12 5m0 4a4.25 4.25 0 1 1 0 8.5A4.25 4.25 0 0 1 12 9m0 2a2.25 2.25 0 1 0 0 4.5 2.25 2.25 0 0 0 0-4.5"/></svg>