<svg xmlns="http://www.w3.org/2000/svg" fill="none" viewBox="0 0 24 25"><path fill="#000" fill-rule="evenodd" d="M12.533 2.052c.917 0 1.764.49 2.222 1.284l1.169 2.028 2.343.001c.916 0 1.763.49 2.22 1.282l.728 1.26c.458.792.458 1.77 0 2.563l-1.172 2.028 1.174 2.029c.46.793.46 1.773.002 2.567l-.727 1.259a2.57 2.57 0 0 1-2.22 1.282h-2.343l-1.17 2.029a2.57 2.57 0 0 1-2.222 1.285l-1.455-.001c-.914 0-1.76-.487-2.218-1.278l-1.18-2.035H5.342a2.57 2.57 0 0 1-2.22-1.282l-.726-1.26a2.56 2.56 0 0 1 0-2.564l1.174-2.03L2.4 10.47a2.57 2.57 0 0 1 0-2.564l.727-1.26a2.57 2.57 0 0 1 2.22-1.282l2.34-.002L8.86 3.333a2.57 2.57 0 0 1 2.22-1.282zm-1.453 2.05a.51.51 0 0 0-.444.257l-1.32 2.285a1.54 1.54 0 0 1-1.332.77l-2.638.002a.51.51 0 0 0-.444.256l-.728 1.26a.51.51 0 0 0 .001.513l1.32 2.285a1.54 1.54 0 0 1-.002 1.54L4.17 15.555a.51.51 0 0 0 .001.513l.726 1.259a.51.51 0 0 0 .444.256h2.64a1.54 1.54 0 0 1 1.331.768l1.327 2.29a.52.52 0 0 0 .444.257l1.454-.001a.52.52 0 0 0 .446-.257l1.316-2.286c.275-.477.783-.77 1.333-.77h2.64a.51.51 0 0 0 .443-.257l.727-1.259a.51.51 0 0 0 0-.513l-1.322-2.284a1.54 1.54 0 0 1-.092-1.357l.091-.184 1.32-2.285a.51.51 0 0 0 0-.513l-.728-1.259a.51.51 0 0 0-.444-.256l-2.639-.001-.204-.012a1.54 1.54 0 0 1-1.016-.588l-.113-.17-1.318-2.286a.51.51 0 0 0-.444-.258zm.725 4.81a3.59 3.59 0 1 1 0 7.18 3.59 3.59 0 0 1 0-7.18m0 2.052a1.539 1.539 0 1 0 0 3.077 1.539 1.539 0 0 0 0-3.077" clip-rule="evenodd"/></svg>